<svg class="animated" id="freepik_stories-aloe-vera" xmlns="http://www.w3.org/2000/svg" viewBox="0 0 500 500" version="1.1" xmlns:xlink="http://www.w3.org/1999/xlink" xmlns:svgjs="http://svgjs.com/svgjs"><style>svg#freepik_stories-aloe-vera:not(.animated) .animable {opacity: 0;}svg#freepik_stories-aloe-vera.animated #freepik--background-complete--inject-49 {animation: 3s Infinite  linear floating;animation-delay: 0s;}            @keyframes floating {                0% {                    opacity: 1;                    transform: translateY(0px);                }                50% {                    transform: translateY(-10px);                }                100% {                    opacity: 1;                    transform: translateY(0px);                }            }        </style><g id="freepik--background-complete--inject-49" class="animable" style="transform-origin: 251.71px 227.62px;"><rect x="286.55" y="79.8" width="68.33" height="17.47" style="fill: rgb(235, 235, 235); transform-origin: 320.715px 88.535px;" id="el1mm9ihcd6ei" class="animable"></rect><path d="M326,115.68s0-.12,0-.32,0-.53,0-.9c0-.82,0-2-.05-3.43,0-3-.07-7.36-.12-12.82l.21.2-68.32.13.34-.33h0v8.86c0,2.92,0,5.79,0,8.6l-.34-.33,48.7.15,14.37.09,3.89,0,1,0a1.41,1.41,0,0,1,.36,0,1.64,1.64,0,0,1-.31,0l-1,0-3.81,0-14.29.1-48.94.15h-.34v-8.93c0-1.45,0-2.92,0-4.4V98.22h0c.7-.68.2-.19.36-.34L326,98h.22v.21c-.05,5.52-.09,9.89-.12,12.94,0,1.45,0,2.58-.05,3.39,0,.35,0,.64,0,.86A.9.9,0,0,1,326,115.68Z" style="fill: rgb(224, 224, 224); transform-origin: 291.785px 106.839px;" id="el7v0jfyoxffv" class="animable"></path><rect x="291.68" y="275.83" width="68.33" height="17.47" style="fill: rgb(235, 235, 235); transform-origin: 325.845px 284.565px;" id="el34tojv355hp" class="animable"></rect><path d="M331.11,311.71s0-.11,0-.32,0-.53,0-.89c0-.83,0-2-.05-3.44,0-3-.07-7.35-.12-12.82l.21.2-68.32.13.34-.33h0v8.87c0,2.91,0,5.78,0,8.59l-.34-.33,48.7.15,14.37.09,3.89.05,1,0,.36,0a1.64,1.64,0,0,1-.31,0l-1,0-3.81.05-14.3.09-48.93.15h-.34v-.33c0-2.81,0-5.68,0-8.59v-8.87h0l.36-.34,68.32.13h.22v.21c-.05,5.52-.09,9.89-.12,12.94,0,1.45,0,2.58,0,3.39,0,.36,0,.64,0,.86A.79.79,0,0,1,331.11,311.71Z" style="fill: rgb(224, 224, 224); transform-origin: 296.91px 302.885px;" id="elt0rbqowku1i" class="animable"></path><rect x="65.62" y="310.3" width="68.33" height="17.47" style="fill: rgb(235, 235, 235); transform-origin: 99.785px 319.035px;" id="elijkvhpt2vpf" class="animable"></rect><path d="M105.05,346.18s0-.12,0-.32,0-.53,0-.9c0-.82,0-2-.05-3.44,0-3-.07-7.35-.12-12.82l.21.21L36.73,329c.15-.15-.35.34.34-.34h0v8.86c0,2.92,0,5.79,0,8.6l-.34-.33,48.7.15,14.37.09,3.89,0,1,0,.36,0-.31,0-1,0-3.81,0-14.3.1-48.93.15h-.34v-8.93c0-1.46,0-2.93,0-4.41v-4.45h0c.7-.67.2-.18.36-.33l68.32.13h.22v.2c0,5.52-.09,9.9-.12,12.95,0,1.45,0,2.58-.05,3.39,0,.35,0,.63,0,.86A1,1,0,0,1,105.05,346.18Z" style="fill: rgb(224, 224, 224); transform-origin: 70.81px 337.203px;" id="elnowca9wvms" class="animable"></path><rect x="381.52" y="30.73" width="68.33" height="17.47" style="fill: rgb(235, 235, 235); transform-origin: 415.685px 39.465px;" id="el1w2fbqyrwrf" class="animable"></rect><rect x="156.19" y="407.04" width="68.33" height="17.47" style="fill: rgb(235, 235, 235); transform-origin: 190.355px 415.775px;" id="el31xg83781i8" class="animable"></rect><rect x="398.73" y="366.14" width="68.33" height="17.47" style="fill: rgb(235, 235, 235); transform-origin: 432.895px 374.875px;" id="elnhb15njz29" class="animable"></rect><rect x="64.87" y="30.73" width="148.12" height="245.17" style="fill: rgb(224, 224, 224); transform-origin: 138.93px 153.315px;" id="elt6s190rdxji" class="animable"></rect><rect x="59.95" y="30.73" width="148.12" height="245.17" style="fill: rgb(235, 235, 235); transform-origin: 134.01px 153.315px;" id="el4q74n1r94u" class="animable"></rect><rect x="66.26" y="35.7" width="135.5" height="235.23" style="fill: rgb(250, 250, 250); transform-origin: 134.01px 153.315px;" id="eluwvkysd8t1" class="animable"></rect><rect x="92.05" y="66.27" width="83.32" height="174.1" style="fill: rgb(235, 235, 235); transform-origin: 133.71px 153.32px;" id="elvlybzzyx8h" class="animable"></rect><path d="M92.05,178.76c-.19-16.27,14.43-32.14,30.54-34.41,7.68-1.08,15.83.44,23-2.5,12.81-5.25,16.88-22.27,29.77-27.32L176,240.37H92.05Z" style="fill: rgb(224, 224, 224); transform-origin: 134.024px 177.45px;" id="elu84gizifgym" class="animable"></path><path d="M457.72,177.24s0-.09,0-.27,0-.44,0-.76c0-.69,0-1.66-.05-2.91,0-2.55-.05-6.22-.09-10.85l.17.17-55.56.11c.12-.13-.29.29.28-.28h0v3.76c0,1.25,0,2.5,0,3.73v7.28l-.28-.28,39.6.13,11.69.08,3.16,0h.83l.29,0a1.1,1.1,0,0,1-.26,0l-.79,0-3.1,0-11.62.07-39.8.13h-.27v-.28q0-3.57,0-7.28v-7.49h0l.29-.29,55.56.11h.17v.18c0,4.67-.07,8.38-.09,11,0,1.22,0,2.18,0,2.87,0,.3,0,.54,0,.73S457.73,177.25,457.72,177.24Z" style="fill: rgb(224, 224, 224); transform-origin: 429.93px 169.68px;" id="elk2n920sj2kp" class="animable"></path><path d="M465.26,162.45a1.32,1.32,0,0,1,0-.29c0-.21,0-.46,0-.78,0-.73,0-1.72,0-3,0-2.59-.06-6.25-.11-10.76l.21.21-33.39.08.28-.29h0v7.61c0,2.48,0,4.88,0,7.18l-.27-.27,23.88.12,7,.08,1.88,0a5.05,5.05,0,0,1,.67,0,4.43,4.43,0,0,1-.61,0l-1.82,0-6.9.08-24.06.13h-.27v-.27c0-2.3,0-4.7,0-7.18v-7.61h0c-.06.06.54-.54.29-.28l33.39.08h.2v.2c0,4.56-.08,8.26-.11,10.89,0,1.23,0,2.2-.05,2.92S465.27,162.46,465.26,162.45Z" style="fill: rgb(224, 224, 224); transform-origin: 448.688px 154.847px;" id="elzy1a258tbmo" class="animable"></path></g><g id="freepik--Floor--inject-49" class="animable" style="transform-origin: 252px 457.235px;"><path d="M469.31,457.21c0,.15-97.3.26-217.3.26s-217.32-.11-217.32-.26S132,457,252,457,469.31,457.07,469.31,457.21Z" style="fill: rgb(38, 50, 56); transform-origin: 252px 457.235px;" id="eljpgmmz7ryoi" class="animable"></path></g><g id="freepik--plant-2--inject-49" class="animable" style="transform-origin: 367.8px 275.963px;"><path d="M338,318a7.37,7.37,0,0,1-3.83-7.14c.17-1.65.92-3.3.55-4.92a10.75,10.75,0,0,0-2.11-3.51,12.4,12.4,0,0,1-.05-13.84,10.75,10.75,0,0,1-5.16-7.73c-.54-2.81,1.56-8.15,1.56-8.15s-2.48-1.64-3.57-6.21c-.64-2.7.66-7.65,2.6-9.64-5.06-3.37-6.32-11.27-2.55-16a14.52,14.52,0,0,1-2-16,11.69,11.69,0,0,1-2.56-15.07,18.86,18.86,0,0,1-4.58-16.25s-3.79-15.31-2.8-18.41c.44-1.37-5.19,11.57-6.79,33.91s7.66,89,13,116.1,22.9,57.45,22.9,57.45l22.34-2.79S341.8,339.87,339,323.91l-.07-4.82" style="fill: rgb(69, 90, 100); transform-origin: 335.738px 278.811px;" id="elb10ldmnavl9" class="animable"></path><g id="elnwffsphw7ok"><g style="opacity: 0.3; transform-origin: 336.76px 342.39px;" class="animable"><path d="M343.27,325.23c-1.31-3.76-4.44-5.34-6.81-8.54A46.34,46.34,0,0,0,329.79,342c.36,8.83,2.41,17.49,4.45,26.09l6.41-2,2.94-35.28A13.3,13.3,0,0,0,343.27,325.23Z" id="eltdi7fgmo63" class="animable" style="transform-origin: 336.76px 342.39px;"></path></g></g><path d="M454.08,243.21c1.87-.39-16.6,50.14-20.33,78.57s-16.88,63.88-22.15,72.71-20.15.76-20.15.76l23-57.43,1.92-17.68s5.44-9.07,5.24-17.87c0,0,4.74-2.37,5.73-11.86,0,0,5-1.21,6.09-11.46,0,0,3.61-8.55,3.57-13.91C437,265,447.11,244.67,454.08,243.21Z" style="fill: rgb(69, 90, 100); transform-origin: 422.831px 320.915px;" id="elpu5y0d9qj3" class="animable"></path><g id="elsbet1dqs15c"><g style="opacity: 0.3; transform-origin: 412.79px 359.605px;" class="animable"><path d="M413.17,342a73.6,73.6,0,0,1-.54,19.44l8.94-4.88c-.25,4.93-2.76,9.52-6.08,13.17s-7.42,6.48-11.48,9.28a281.1,281.1,0,0,1,8.56-38.81" id="el9e6odrhz53l" class="animable" style="transform-origin: 412.79px 359.605px;"></path></g></g><path d="M457.74,279.39c-.36.9-3.73,21.45-5.69,34.1-1.7,10.95-4.39,35.43-13.91,51.49s-23,29.35-31.74,34.81c-13.53,8.49-24.94,8.36-24.94,8.36L410,368s11.33-5.9,9.89-11l1.17-6.79s8.18-1.91,9.07-10.19c0,0,8-7.15,7.55-18,0,0,6.79-4.89,5.77-11.86,0,0,5.47-5.06,4.4-9.29,0,0,5-3.87,3.27-9.05Z" style="fill: rgb(69, 90, 100); transform-origin: 419.6px 343.77px;" id="el9c0gx1265cf" class="animable"></path><path d="M457.74,279.39c-.5.95-2.43,4.69-6.46,12.46v-.12a7.24,7.24,0,0,1-.09,4.81A10.62,10.62,0,0,1,448,301l.08-.21a6.09,6.09,0,0,1,0,2.55,10.6,10.6,0,0,1-1,2.48,19.41,19.41,0,0,1-3.47,4.49l.07-.21a11,11,0,0,1-1.17,6.54,16.91,16.91,0,0,1-4.67,5.57L438,322a24.56,24.56,0,0,1-7.61,18.29l.1-.2a11.63,11.63,0,0,1-2.87,6.55,13.57,13.57,0,0,1-6.43,3.94l.26-.27c-.36,2.1-.76,4.43-1.17,6.78v-.15a4.86,4.86,0,0,1-.82,3.85,14.41,14.41,0,0,1-2.6,3,36.55,36.55,0,0,1-6.65,4.56l.13-.11c-8.83,12.44-18.48,26-28.54,40.19l-.3-.6a30.67,30.67,0,0,0,3.45-.29,52.06,52.06,0,0,0,15.34-4.75,57.2,57.2,0,0,0,13-8.59,121.58,121.58,0,0,0,19.8-22.05,85.81,85.81,0,0,0,7.14-11.82,88.28,88.28,0,0,0,4.67-12.15A177,177,0,0,0,450,325.24c2.13-14.2,4.05-25.68,5.41-33.59.68-4,1.23-7,1.62-9.11.2-1,.36-1.83.49-2.36a4.66,4.66,0,0,1,.22-.79s-.77,4.37-2,12.31-3.1,19.4-5.16,33.62a176.8,176.8,0,0,1-5,23,88.65,88.65,0,0,1-4.68,12.27,86.83,86.83,0,0,1-7.16,11.93,121.83,121.83,0,0,1-19.89,22.21,57.84,57.84,0,0,1-13.21,8.71A52.53,52.53,0,0,1,385,408.24a29.75,29.75,0,0,1-3.57.29h-.75l.44-.61c10.06-14.15,19.73-27.73,28.57-40.17l0-.06.08-.05a35.12,35.12,0,0,0,6.51-4.45,13.94,13.94,0,0,0,2.48-2.81,4.16,4.16,0,0,0,.74-3.29l0-.07V357c.41-2.36.82-4.69,1.18-6.79l0-.2.22-.07a13,13,0,0,0,6.09-3.71,10.91,10.91,0,0,0,2.73-6.19l0-.11.09-.09c5.12-5,7.77-11.78,7.48-17.8v-.14l.12-.09a16.47,16.47,0,0,0,4.53-5.36,10.41,10.41,0,0,0,1.16-6.24V310l.09-.09a18.94,18.94,0,0,0,3.4-4.35,10.47,10.47,0,0,0,.94-2.36,5.69,5.69,0,0,0,0-2.36l0-.13.1-.08a10.32,10.32,0,0,0,3.11-4.26,6.83,6.83,0,0,0,.13-4.58l0-.07,0-.06Z" style="fill: rgb(38, 50, 56); transform-origin: 419.21px 343.96px;" id="el9b7pfzfcjas" class="animable"></path><path d="M352.64,125.37s-12.13,19.42-12.94,51.78,6.47,166.59,6.47,166.59l9.31,27.59,16.18-4.86s-9.32-87.78-10.12-101.13-4.1-65.13-5.89-84.14S350.22,128.21,352.64,125.37Z" style="fill: rgb(38, 50, 56); transform-origin: 355.649px 248.35px;" id="eltcg074tuw49" class="animable"></path><path d="M277.86,276.09s6.07,51.79,16.42,75.66c17.54,40.47,73,53.58,73,53.58L337.92,367s-8,3.2-10-6.41c0,0-10.81-4-10-10a13.55,13.55,0,0,1-9.21-10.61,12.33,12.33,0,0,1-8-13.41s-6.26-1.65-5-9.31c0,0-6.89-4.46-5.74-12.88,0,0-4.46-3.19-4.08-10.84Z" style="fill: rgb(69, 90, 100); transform-origin: 322.57px 340.71px;" id="el48yk3g6apkw" class="animable"></path><path d="M277.86,276.09,286,293.42l0,0v0a15.75,15.75,0,0,0,.69,5.51,11,11,0,0,0,3.35,5.15l.11.09,0,.12a12.9,12.9,0,0,0,.91,6.77,14.22,14.22,0,0,0,4.75,5.86l.15.11,0,.16a9.12,9.12,0,0,0,.58,5.37,7.18,7.18,0,0,0,4.23,3.62l.24.07,0,.24a12.7,12.7,0,0,0,1.44,7.76,12.55,12.55,0,0,0,6.38,5.31l.18.07,0,.18a13.84,13.84,0,0,0,2.94,6.29,13.38,13.38,0,0,0,6,4.05l.29.09,0,.28c-.26,2.25,1.28,4.4,3.2,5.9a25.27,25.27,0,0,0,6.6,3.73l.19.07,0,.19a9,9,0,0,0,3.09,5.53,7.15,7.15,0,0,0,6.44.61l.26-.09.17.21,29.35,38.35.68.89-1.07-.29-2.22-.58a149.91,149.91,0,0,1-31.44-13.05A107.35,107.35,0,0,1,308.24,373a70.41,70.41,0,0,1-15.43-24.08,176.07,176.07,0,0,1-6.91-24c-3.32-14.92-5.17-27.16-6.4-35.61-.59-4.23-1-7.51-1.28-9.75-.13-1.1-.22-1.94-.29-2.54s-.06-.9-.07-.87.07.3.15.86.2,1.44.36,2.53c.33,2.25.81,5.53,1.43,9.73,1.32,8.43,3.25,20.65,6.63,35.53a176.33,176.33,0,0,0,7,23.92,69.87,69.87,0,0,0,15.35,23.82,106.8,106.8,0,0,0,25.13,18.94,149.62,149.62,0,0,0,31.28,13l2.18.58-.39.6-29.32-38.37.42.12a7.87,7.87,0,0,1-7.13-.7,9.73,9.73,0,0,1-3.36-6l.22.26A25.93,25.93,0,0,1,321,357a10.76,10.76,0,0,1-2.57-2.85,6,6,0,0,1-.86-3.67l.25.37a14,14,0,0,1-6.37-4.27,14.39,14.39,0,0,1-3.06-6.61l.21.25a12.55,12.55,0,0,1-8.19-13.75l.21.31a7.76,7.76,0,0,1-4.58-3.93,9.73,9.73,0,0,1-.6-5.7l.12.26a14.78,14.78,0,0,1-4.92-6.11,13.42,13.42,0,0,1-.9-7l.09.21a11.33,11.33,0,0,1-3.46-5.39,15.83,15.83,0,0,1-.67-5.64l0,.08Z" style="fill: rgb(38, 50, 56); transform-origin: 323.04px 341px;" id="elfnvfcsxldgs" class="animable"></path><path d="M443.56,186.17s-24.95,11.34-40.07,72.69c-6.23,25.27,8.52,76.69,8.52,76.69l9.46-42.72s-7.92-3.42-2.51-11.62c0,0-4.79-10.48,0-14.15a13.57,13.57,0,0,1,1-14,12.33,12.33,0,0,1,3.87-15.13s-3.25-5.62,3.08-10.11c0,0-1.69-8,5.09-13.15,0,0-.89-5.42,4.81-10.54Z" style="fill: rgb(38, 50, 56); transform-origin: 422.758px 260.86px;" id="elcd9ch8kfv8" class="animable"></path><path d="M388.24,94.85c1-1.9-11.73,16.77-13.75,32.55s-2.83,27.51-2.83,27.51,2.5,11-1.47,16c0,0,5.22,14.19,0,22.12,0,0,4.18,13.35,0,18.57,0,0,4.39,13.35,0,17.94,0,0,5.85,11.48,0,16.91,0,0,4.18,11.47-.83,15.65,0,0,5.22,9.7,0,14,0,0,4.59,18.31-2.5,20.4,0,0,2.64,16.06-1.92,18.15,0,0,3,15.23-2.47,18.57,0,0,1.46,14.61-2.29,18.16,0,0,2.92,10.85-.84,15.86s2.2,33.19,2.2,33.19h23.6l4-21.3s-1.67-102.25-2.08-118.94-3.76-70.12-3.76-70.12-1-49.24-1.25-55.08S385,101.26,388.24,94.85Z" style="fill: rgb(69, 90, 100); transform-origin: 373.618px 247.573px;" id="elcb078nul0vg" class="animable"></path><path d="M409,150.36s-10.26,36.84-5.13,76.47,13.06,89.53,8.4,118.44a245.21,245.21,0,0,1-10.18,39.33,41.42,41.42,0,0,1-21.18,23.83h0s-10.61-15.73-8.75-23.36,9.6-19.76,9.6-19.76,8.59-13.51,6.73-21.44c0,0,5.13-6.53,4.19-14,0,0,4.66-11.19,2.33-17.72,0,0,6.53-7.93,3.27-17.25,0,0,1.86-4.2-.94-13.52,0,0-1.39-14.46-4.66-18.66,0,0,3.7-8,0-14.8,0,0,2.87-7.78-1-13.85a13.91,13.91,0,0,0,0-11.67s2.92-5.83-.72-10.45c0,0,1.94-7.78.72-12.15,0,0,2.29-7.54,1-11.91a42.18,42.18,0,0,0,2.87-10.7s4.86-3.89,3.41-10c0,0,3.4.48,4.13-7.29Z" style="fill: rgb(69, 90, 100); transform-origin: 392.812px 279.395px;" id="elymkjjfzpoeh" class="animable"></path><path d="M409,150.36c-.38.62-2.1,3.49-5.82,9.64l0,0a18.2,18.2,0,0,1-.84,4.15,6.75,6.75,0,0,1-1.14,2.1,3,3,0,0,1-2.28,1.17l.16-.18a9.85,9.85,0,0,1-.18,5.23,11.26,11.26,0,0,1-3.26,4.91l.07-.12A40.75,40.75,0,0,1,392.84,188v-.14a16,16,0,0,1,.23,5.91,37.92,37.92,0,0,1-1.23,6.12v-.13a18.18,18.18,0,0,1,.31,6,45.53,45.53,0,0,1-1,6.28l0-.22a8.91,8.91,0,0,1,1.87,5.07,12.16,12.16,0,0,1-1.1,5.66v-.24a14.13,14.13,0,0,1,0,11.92l0-.29c2.49,3.9,2.64,9.29,1.07,14.11l0-.24c2.35,4.33,2.1,10.09,0,15.08l0-.33a14.57,14.57,0,0,1,2,4.28,46.27,46.27,0,0,1,1.21,4.67,99.43,99.43,0,0,1,1.54,9.86l0-.06a38.11,38.11,0,0,1,1.4,6.58,16.93,16.93,0,0,1-.47,7.18v-.25a17.09,17.09,0,0,1,.58,8.95,21.15,21.15,0,0,1-3.89,8.64l.06-.35a18.81,18.81,0,0,1,.25,9,47.27,47.27,0,0,1-2.58,9l0-.18c.57,4.8-1.19,10-4.27,14.26l.07-.32a17.89,17.89,0,0,1-.61,8.19,45.62,45.62,0,0,1-3,7.72,68.1,68.1,0,0,1-4.09,7.31c-1.44,2.39-2.83,4.84-4.14,7.34a74,74,0,0,0-3.52,7.74c-.22.68-.48,1.34-.67,2l-.28,1-.15,1a11.1,11.1,0,0,0,0,2.08c.12.69.18,1.4.35,2.09a39.9,39.9,0,0,0,3,8.11,82.07,82.07,0,0,0,4.2,7.69l.93,1.48.24.36.12.19c.45.13-.56-.07-.42-.08l.1-.05.77-.4c1-.51,2-1.11,3-1.71a39.16,39.16,0,0,0,5.52-4.14,40.69,40.69,0,0,0,8.54-10.61c2.29-3.93,3.54-8.3,4.95-12.57s2.64-8.57,3.77-12.84a181,181,0,0,0,5.09-25.49,176.79,176.79,0,0,0,.6-24.91c-.6-16.25-2.3-31.63-4-46s-3.61-27.71-5.18-39.92c-.43-3-.68-6.05-1-9s-.39-5.77-.57-8.54c-.17-5.55-.2-10.78,0-15.67a227.51,227.51,0,0,1,2.34-25c1-6.81,2.1-12.05,2.91-15.59.4-1.76.74-3.1,1-4,.12-.44.21-.77.28-1l.11-.34c-.11.48-.46,2-1.22,5.39-.76,3.54-1.79,8.78-2.76,15.59a233.47,233.47,0,0,0-2.22,24.94c-.18,4.88-.14,10.11.06,15.64.18,2.76.32,5.61.59,8.52s.59,5.89,1,8.93c1.6,12.2,3.5,25.55,5.27,39.92s3.47,29.75,4.1,46a178.33,178.33,0,0,1-.58,25,181.66,181.66,0,0,1-5.09,25.6c-1.14,4.29-2.41,8.58-3.78,12.88s-2.67,8.69-5,12.71a41.27,41.27,0,0,1-8.69,10.81,40.13,40.13,0,0,1-5.63,4.22c-1,.61-2,1.22-3.08,1.74l-.79.41-.09.05c.06.06-1-.29-.56-.19l-.12-.18-.24-.38-.94-1.49a81.26,81.26,0,0,1-4.24-7.77,41.06,41.06,0,0,1-3-8.26c-.17-.72-.24-1.46-.36-2.19a12.89,12.89,0,0,1,0-2.24l.17-1.12.29-1.05c.19-.71.46-1.38.69-2.07a72.92,72.92,0,0,1,3.56-7.83c1.31-2.52,2.72-5,4.17-7.38a70,70,0,0,0,4.06-7.25,45.94,45.94,0,0,0,2.94-7.59,17,17,0,0,0,.6-7.82l0-.17.1-.14c3-4.07,4.68-9.17,4.13-13.71v-.1l0-.09a46,46,0,0,0,2.54-8.87,18.11,18.11,0,0,0-.21-8.59l-.06-.18.12-.16a20.47,20.47,0,0,0,3.75-8.32,16.4,16.4,0,0,0-.54-8.6l0-.11,0-.14a16.49,16.49,0,0,0,.43-6.82,38.19,38.19,0,0,0-1.36-6.47v-.06a98.25,98.25,0,0,0-1.5-9.8,46.89,46.89,0,0,0-1.19-4.6,13.83,13.83,0,0,0-1.89-4.09l-.11-.15.08-.18c2-4.8,2.26-10.41,0-14.53l-.06-.11,0-.13c1.53-4.65,1.39-9.91-1-13.6l-.09-.13.07-.16a13.56,13.56,0,0,0,0-11.42l-.05-.11.06-.12a11.84,11.84,0,0,0,1.06-5.39,8.41,8.41,0,0,0-1.75-4.79l-.07-.09,0-.12a44.53,44.53,0,0,0,1-6.2,17.87,17.87,0,0,0-.28-5.83v-.07l0-.06a38.09,38.09,0,0,0,1.23-6,15.75,15.75,0,0,0-.19-5.75l0-.07,0-.06a40.87,40.87,0,0,0,2.88-10.63v-.08l.06-.05a10.89,10.89,0,0,0,3.17-4.73,9.54,9.54,0,0,0,.21-5.06l-.05-.18H399a2.71,2.71,0,0,0,2-1.05,6.76,6.76,0,0,0,1.1-2,18,18,0,0,0,.86-4.08v0l0,0Z" style="fill: rgb(38, 50, 56); transform-origin: 392.879px 279.438px;" id="el96acyshcqa7" class="animable"></path><g id="el79jr0lmmfve"><g style="opacity: 0.3; transform-origin: 362.455px 359.5px;" class="animable"><path d="M381.84,407a84.45,84.45,0,0,0-12-31.13c-3-4.63-6.39-9-8.57-14.06s-3-11-.49-16a12.64,12.64,0,0,1-4.2-12,16.54,16.54,0,0,1-6-17.78L343.73,312l-.66,20.66,2.5,32.68,14.07,22.47Z" id="ellc06eadhzqd" class="animable" style="transform-origin: 362.455px 359.5px;"></path></g></g><path d="M347.87,267.26c0,1-4.49,21.31-7.36,33.78-2.48,10.8-9.06,34.53-6.18,53s11.78,36.36,22.29,44.85c13.3,10.75,25.71,9.52,25.71,9.52l-23-41.15s-8.33-9.69-5.12-13.86l1.43-6.73s-6.88-4.81-4.64-12.83c0,0-4.81-9.62-.32-19.56,0,0-4.49-7.06-1-13.15,0,0-3.21-6.74-.64-10.27,0,0-3.21-5.45.32-9.62Z" style="fill: rgb(69, 90, 100); transform-origin: 357.972px 337.856px;" id="el1p9ah2lu1vth" class="animable"></path><path d="M347.87,267.26c.13,1.06.64,5.24,1.69,13.94v.06l0,.05a6.9,6.9,0,0,0-1.59,4.31,10.5,10.5,0,0,0,1.32,5.11l.06.12-.07.1a5.65,5.65,0,0,0-.85,2.2,10.35,10.35,0,0,0,0,2.55,19.28,19.28,0,0,0,1.55,5.29l.05.12-.06.11a10.4,10.4,0,0,0-1.23,6.22,16.32,16.32,0,0,0,2.22,6.66l.08.13-.06.13a24.08,24.08,0,0,0,.35,19.31l0,.11,0,.11a11,11,0,0,0,.25,6.76,12.9,12.9,0,0,0,4.28,5.71l.18.14,0,.21c-.43,2.08-.92,4.39-1.42,6.73v.08l-.05.06a4.14,4.14,0,0,0-.53,3.33,13.82,13.82,0,0,0,1.26,3.53,35.76,35.76,0,0,0,4.4,6.55l0,0,0,0c7.12,12.74,14.9,26.66,23,41.15l.29.53-.59,0a28.86,28.86,0,0,1-7.17-.58,41.67,41.67,0,0,1-15.14-6.35,43.4,43.4,0,0,1-11.48-11.07A82.88,82.88,0,0,1,336,363.49a78.48,78.48,0,0,1-2.49-13.83,83.31,83.31,0,0,1,.11-13.24A170.26,170.26,0,0,1,337.44,313c3.37-14.1,6-25.53,7.74-33.44.87-3.94,1.55-7,2-9.11.4-1.87.58-2.74.67-3.19a4.48,4.48,0,0,1-.08.83c-.09.54-.23,1.34-.44,2.39-.4,2.09-1,5.18-1.88,9.14-1.69,7.92-4.2,19.39-7.51,33.5a170.63,170.63,0,0,0-3.7,23.35,81,81,0,0,0-.08,13.14,79.32,79.32,0,0,0,2.5,13.7,82.57,82.57,0,0,0,12.5,27,42.91,42.91,0,0,0,11.3,10.88,41,41,0,0,0,14.87,6.23,28.32,28.32,0,0,0,6.95.57l-.3.57L359,367.4l0,.06a36.43,36.43,0,0,1-4.48-6.7,14.68,14.68,0,0,1-1.32-3.73,4.84,4.84,0,0,1,.68-3.87l-.07.14c.5-2.34,1-4.65,1.44-6.73l.13.34a13.6,13.6,0,0,1-4.5-6,11.61,11.61,0,0,1-.24-7.15l0,.23a24.62,24.62,0,0,1-.29-19.82l0,.26a16.73,16.73,0,0,1-2.27-6.9,10.9,10.9,0,0,1,1.33-6.51v.22a19.28,19.28,0,0,1-1.55-5.45,10.36,10.36,0,0,1,0-2.67,6.19,6.19,0,0,1,.94-2.36v.22a10.81,10.81,0,0,1-1.32-5.33,7.23,7.23,0,0,1,1.7-4.5l0,.12C348.39,272.51,348,268.33,347.87,267.26Z" style="fill: rgb(38, 50, 56); transform-origin: 358.144px 337.979px;" id="elfz4kv24mnf" class="animable"></path><polygon points="413.65 457.21 333.62 457.21 324.44 394.82 422.83 394.82 413.65 457.21" style="fill: rgb(0, 255, 136); transform-origin: 373.635px 426.015px;" id="eliy2st4457ur" class="animable"></polygon><polygon points="317.1 409.05 317.06 394.82 430.09 394.82 429.19 409.05 317.1 409.05" style="fill: rgb(0, 255, 136); transform-origin: 373.575px 401.935px;" id="el3pn6jbb7uu7" class="animable"></polygon><path d="M429.19,409.05c0,.21-25.13.38-56.12.38s-56.12-.17-56.12-.38,25.12-.39,56.12-.39S429.19,408.84,429.19,409.05Z" style="fill: rgb(38, 50, 56); transform-origin: 373.07px 409.045px;" id="elo16h3m1dv6k" class="animable"></path><g id="elmp5j2jiuta"><g style="opacity: 0.3; transform-origin: 373.645px 411.864px;" class="animable"><path d="M330.1,408.94c10,4.69,27.59,6.57,43.73,6a219.47,219.47,0,0,0,43.36-6.25Z" id="eltpc5905r8ul" class="animable" style="transform-origin: 373.645px 411.864px;"></path></g></g><g id="elfc0hinqy8u"><g style="opacity: 0.3; transform-origin: 386.255px 374.545px;" class="animable"><path d="M388.55,369.09c.41.13-.11,2.79-1.41,5.83s-2.85,5.27-3.23,5.07.52-2.7,1.79-5.68S388.14,369,388.55,369.09Z" style="fill: rgb(255, 255, 255); transform-origin: 386.255px 374.545px;" id="elm7kse5chdj" class="animable"></path></g></g><g id="elze6u4mer7h8"><g style="opacity: 0.3; transform-origin: 398.805px 369.664px;" class="animable"><path d="M402,363.32c.39.2-.73,3.19-2.5,6.69s-3.5,6.17-3.89,6,.73-3.18,2.5-6.68S401.57,363.13,402,363.32Z" style="fill: rgb(255, 255, 255); transform-origin: 398.805px 369.664px;" id="elm2wfbpix4sm" class="animable"></path></g></g><g id="elk4lvynhkhsf"><g style="opacity: 0.3; transform-origin: 396.385px 358.184px;" class="animable"><path d="M399.14,352.37c.39.18-.53,2.94-2.05,6.15s-3.07,5.66-3.46,5.48.53-2.94,2.05-6.15S398.75,352.18,399.14,352.37Z" style="fill: rgb(255, 255, 255); transform-origin: 396.385px 358.184px;" id="eljf6xcjeln8e" class="animable"></path></g></g><g id="eldtfulq268aa"><g style="opacity: 0.3; transform-origin: 397.792px 344.441px;" class="animable"><path d="M399.58,339.55c.41.15-.07,2.46-1.06,5.17s-2.12,4.77-2.52,4.61.07-2.48,1.06-5.17S399.18,339.41,399.58,339.55Z" style="fill: rgb(255, 255, 255); transform-origin: 397.792px 344.441px;" id="eld4jfnzmcivf" class="animable"></path></g></g><g id="elizfv5cg83pg"><g style="opacity: 0.3; transform-origin: 405.388px 348.883px;" class="animable"><path d="M406.64,344.76c.42.07.43,2.1-.33,4.44s-1.95,4-2.33,3.79.13-2.05.84-4.27S406.21,344.69,406.64,344.76Z" style="fill: rgb(255, 255, 255); transform-origin: 405.388px 348.883px;" id="el8ta2yf6q56c" class="animable"></path></g></g><g id="elplt891894fk"><g style="opacity: 0.3; transform-origin: 407.525px 332.72px;" class="animable"><path d="M408.05,328.55c.43.05.54,2,.25,4.27s-.87,4.12-1.3,4.07-.54-2-.25-4.27S407.62,328.49,408.05,328.55Z" style="fill: rgb(255, 255, 255); transform-origin: 407.525px 332.72px;" id="elb32d2wggs5d" class="animable"></path></g></g><g id="elvo3hqd97ib"><g style="opacity: 0.3; transform-origin: 389.376px 384.626px;" class="animable"><path d="M391.51,381.68c.36.22-.2,1.82-1.41,3.48s-2.56,2.68-2.89,2.39.47-1.72,1.63-3.31S391.14,381.46,391.51,381.68Z" style="fill: rgb(255, 255, 255); transform-origin: 389.376px 384.626px;" id="elz6d6y8a4d1" class="animable"></path></g></g><g id="el6i5miit2r0c"><g style="opacity: 0.3; transform-origin: 403.733px 323.94px;" class="animable"><path d="M404.6,318.37c.42.06.38,2.61-.1,5.69s-1.21,5.51-1.63,5.45-.39-2.61.09-5.69S404.17,318.3,404.6,318.37Z" style="fill: rgb(255, 255, 255); transform-origin: 403.733px 323.94px;" id="els5ps772q2b" class="animable"></path></g></g><g id="elch53veq4wz9"><g style="opacity: 0.3; transform-origin: 415.685px 379.175px;" class="animable"><path d="M418.87,375.34c.33.27-.83,2.22-2.58,4.33s-3.46,3.62-3.79,3.34.83-2.21,2.58-4.33S418.54,375.06,418.87,375.34Z" style="fill: rgb(255, 255, 255); transform-origin: 415.685px 379.175px;" id="elrei52cdna9l" class="animable"></path></g></g><g id="elptopzgud8uk"><g style="opacity: 0.3; transform-origin: 424.535px 377.57px;" class="animable"><path d="M429.15,372.23c.37.18-.84,3.27-3.51,6.31s-5.54,4.68-5.77,4.34,2.09-2.46,4.6-5.36S428.75,372,429.15,372.23Z" style="fill: rgb(255, 255, 255); transform-origin: 424.535px 377.57px;" id="elyv9acjate1" class="animable"></path></g></g><g id="el7lpusl4ggn4"><g style="opacity: 0.3; transform-origin: 427.399px 366.713px;" class="animable"><path d="M430.52,362.48c.34.26-.77,2.36-2.49,4.7s-3.4,4-3.75,3.77.77-2.36,2.49-4.7S430.17,362.23,430.52,362.48Z" style="fill: rgb(255, 255, 255); transform-origin: 427.399px 366.713px;" id="el6hvyv92ni0j" class="animable"></path></g></g><g id="elkxbg210gyer"><g style="opacity: 0.3; transform-origin: 438.003px 356.999px;" class="animable"><path d="M439.32,354.63c.38.21.1,1.43-.63,2.74s-1.61,2.2-2,2-.1-1.44.63-2.75S438.94,354.42,439.32,354.63Z" style="fill: rgb(255, 255, 255); transform-origin: 438.003px 356.999px;" id="elv1okfeouh5k" class="animable"></path></g></g><g id="el90plugjsai4"><g style="opacity: 0.3; transform-origin: 345.677px 375.281px;" class="animable"><path d="M349.36,380.53c-.27.32-2.75-1.41-4.84-4.44s-2.85-5.95-2.46-6.09,1.76,2.36,3.74,5.2S349.66,380.2,349.36,380.53Z" style="fill: rgb(255, 255, 255); transform-origin: 345.677px 375.281px;" id="elre51545089k" class="animable"></path></g></g><g id="eluwcmf9vo5ia"><g style="opacity: 0.3; transform-origin: 340.89px 360.963px;" class="animable"><path d="M342.57,364.12c-.11.18-.59.13-1.21-.28a4.84,4.84,0,0,1-1.78-2.23,4.93,4.93,0,0,1-.32-2.84c.16-.73.47-1.1.67-1.06.43.12.38,1.66,1.09,3.3S342.8,363.74,342.57,364.12Z" style="fill: rgb(255, 255, 255); transform-origin: 340.89px 360.963px;" id="el4hhx2jzc5ud" class="animable"></path></g></g><g id="el7mptcmsm0mu"><g style="opacity: 0.3; transform-origin: 348.428px 367.273px;" class="animable"><path d="M351,372c-.28.3-2.35-1.28-3.8-4.06s-1.59-5.37-1.18-5.43,1.22,2.16,2.57,4.7S351.27,371.71,351,372Z" style="fill: rgb(255, 255, 255); transform-origin: 348.428px 367.273px;" id="elc4gphp6lo4j" class="animable"></path></g></g><g id="el30tby60j066"><g style="opacity: 0.3; transform-origin: 358.276px 385.691px;" class="animable"><path d="M361.89,389.77c-.23.35-2.62-.83-4.78-3.24a14.05,14.05,0,0,1-2.34-3.43,1.4,1.4,0,0,1-.07-1,.84.84,0,0,1,.68-.54.53.53,0,0,1,.5.18c.07.11,0,.19,0,.21s-.24.05-.31.19-.05.18-.05.17.09.15.22.3c.6.68,1.53,1.79,2.53,2.9C360.28,387.73,362.14,389.4,361.89,389.77Z" style="fill: rgb(255, 255, 255); transform-origin: 358.276px 385.691px;" id="eljesbzsbqiva" class="animable"></path></g></g><g id="el5j9xfij6z7e"><g style="opacity: 0.2; transform-origin: 371.694px 348.265px;" class="animable"><path d="M371.9,341.93c.43,0,.69,2.86.59,6.36s-.53,6.33-1,6.31-.69-2.85-.59-6.35S371.46,341.92,371.9,341.93Z" style="fill: rgb(255, 255, 255); transform-origin: 371.694px 348.265px;" id="el5o3wgdlbn55" class="animable"></path></g></g><g id="el3rxnx0snuam"><g style="opacity: 0.2; transform-origin: 380.471px 333.205px;" class="animable"><path d="M380.93,326.87c.43,0,.57,2.89.32,6.39s-.8,6.31-1.23,6.28-.58-2.89-.33-6.39S380.5,326.84,380.93,326.87Z" style="fill: rgb(255, 255, 255); transform-origin: 380.471px 333.205px;" id="eldzs1g8svs9" class="animable"></path></g></g><g id="elrn3jwuc5m3s"><g style="opacity: 0.2; transform-origin: 380.467px 353.46px;" class="animable"><path d="M380.25,358c-.43,0-.68-2.07-.56-4.58s.58-4.53,1-4.5.68,2.07.55,4.58S380.68,358,380.25,358Z" style="fill: rgb(255, 255, 255); transform-origin: 380.467px 353.46px;" id="elmw8ct38hmas" class="animable"></path></g></g><g id="el4m93o6dqr0c"><g style="opacity: 0.2; transform-origin: 374.716px 325.659px;" class="animable"><path d="M375.21,321.3c.43.09.4,2,.25,4.39s-.36,4.3-.8,4.33-.91-1.95-.76-4.43S374.79,321.22,375.21,321.3Z" style="fill: rgb(255, 255, 255); transform-origin: 374.716px 325.659px;" id="elqy3dgm8phm8" class="animable"></path></g></g><g id="elphxut903mc8"><g style="opacity: 0.2; transform-origin: 379.486px 312.125px;" class="animable"><path d="M379.66,308.74c.43.07.55,1.57.6,3.38s0,3.31-.43,3.39-1.08-1.39-1.13-3.35S379.24,308.67,379.66,308.74Z" style="fill: rgb(255, 255, 255); transform-origin: 379.486px 312.125px;" id="ele6fw0gf6nj" class="animable"></path></g></g><g id="elnhtig92j469"><g style="opacity: 0.2; transform-origin: 373.417px 368.453px;" class="animable"><path d="M373.62,371.76c-.41.09-1.08-1.4-1-3.35s.87-3.39,1.27-3.26.35,1.59.29,3.32S374.05,371.67,373.62,371.76Z" style="fill: rgb(255, 255, 255); transform-origin: 373.417px 368.453px;" id="elw5if75assnl" class="animable"></path></g></g><g id="el9bh6dlvlmft"><g style="opacity: 0.2; transform-origin: 320.361px 375.542px;" class="animable"><path d="M326.41,379.53c-.16.39-3.37-.61-6.78-2.9s-5.59-4.84-5.3-5.13,2.87,1.65,6.16,3.83S326.59,379.13,326.41,379.53Z" style="fill: rgb(255, 255, 255); transform-origin: 320.361px 375.542px;" id="elxz81hlcds5" class="animable"></path></g></g><g id="ell6nhf44wqf"><g style="opacity: 0.2; transform-origin: 308.669px 365.46px;" class="animable"><path d="M310.43,366.94c-.05.2-.38.33-.89.27a3.32,3.32,0,0,1-2.62-2.62c-.07-.51.07-.84.27-.89.43-.08,1,.73,1.75,1.49S310.51,366.51,310.43,366.94Z" style="fill: rgb(255, 255, 255); transform-origin: 308.669px 365.46px;" id="elnmap95k4v5" class="animable"></path></g></g><g id="elsmwni2r08kr"><g style="opacity: 0.2; transform-origin: 319.111px 368.027px;" class="animable"><path d="M324.3,372.06c-.24.35-2.88-1.05-5.77-3.3s-4.88-4.46-4.6-4.78,2.72,1.34,5.56,3.55S324.55,371.7,324.3,372.06Z" style="fill: rgb(255, 255, 255); transform-origin: 319.111px 368.027px;" id="el2mtfao4b58o" class="animable"></path></g></g><g id="elg1sppt6i4dn"><g style="opacity: 0.2; transform-origin: 332.125px 377.35px;" class="animable"><path d="M334.19,378.5c-.21.38-1.31.17-2.45-.47s-1.89-1.45-1.68-1.83,1.3-.17,2.44.47S334.4,378.13,334.19,378.5Z" style="fill: rgb(255, 255, 255); transform-origin: 332.125px 377.35px;" id="elwmd3i8oryo" class="animable"></path></g></g><g id="elk1fejwp7vm"><g style="opacity: 0.2; transform-origin: 341.566px 388.685px;" class="animable"><path d="M346.86,391.3c-.12.4-2.84,0-5.84-1.55s-5-3.43-4.73-3.77,2.56.94,5.43,2.38S347,390.87,346.86,391.3Z" style="fill: rgb(255, 255, 255); transform-origin: 341.566px 388.685px;" id="elwm3pqbu715o" class="animable"></path></g></g><g id="elnykn00c1we"><g style="opacity: 0.2; transform-origin: 326.272px 326.475px;" class="animable"><path d="M328.45,332.84c-.17.13-.81-.36-1.58-1.38a14.54,14.54,0,0,1-2.2-4.44,14.38,14.38,0,0,1-.61-4.93c.08-1.27.35-2,.55-2,.46,0,.5,3,1.56,6.49S328.81,332.57,328.45,332.84Z" style="fill: rgb(255, 255, 255); transform-origin: 326.272px 326.475px;" id="elridyzmdawcm" class="animable"></path></g></g><g id="ela1vkszfbdnf"><g style="opacity: 0.2; transform-origin: 322.821px 311.693px;" class="animable"><path d="M322.5,309.2c.44,0,.74,1.1,1,2.37s.46,2.39.07,2.59-1.27-.75-1.6-2.25S322.07,309.17,322.5,309.2Z" style="fill: rgb(255, 255, 255); transform-origin: 322.821px 311.693px;" id="elrqoffhkd13k" class="animable"></path></g></g><g id="elcm45yr3tul6"><g style="opacity: 0.2; transform-origin: 324.382px 298.46px;" class="animable"><path d="M323.59,293.22c.43-.07,1.13,2.23,1.57,5.12s.46,5.29,0,5.36-1.13-2.23-1.57-5.12S323.17,293.29,323.59,293.22Z" style="fill: rgb(255, 255, 255); transform-origin: 324.382px 298.46px;" id="el71zhe7gdi6" class="animable"></path></g></g><g id="eltgahejb206g"><g style="opacity: 0.2; transform-origin: 318.064px 291.425px;" class="animable"><path d="M317,287.42c.42-.11,1.23,1.59,1.81,3.81s.72,4.09.3,4.2-1.22-1.59-1.81-3.81S316.63,287.53,317,287.42Z" style="fill: rgb(255, 255, 255); transform-origin: 318.064px 291.425px;" id="elgztn8oo1vke" class="animable"></path></g></g><g id="elnyoilwdusyq"><g style="opacity: 0.2; transform-origin: 318.562px 278.096px;" class="animable"><path d="M317.83,275.31c.44,0,.73,1.26,1.23,2.66s1,2.57.67,2.86-1.56-.63-2.15-2.35S317.41,275.27,317.83,275.31Z" style="fill: rgb(255, 255, 255); transform-origin: 318.562px 278.096px;" id="elwl8mssgopt" class="animable"></path></g></g><g id="elto7srlftjd"><g style="opacity: 0.2; transform-origin: 381.004px 294.848px;" class="animable"><path d="M382,291c.39.2-.06,1.87-.42,3.91s-.54,3.75-1,3.8-1-1.8-.56-4.08S381.66,290.82,382,291Z" style="fill: rgb(255, 255, 255); transform-origin: 381.004px 294.848px;" id="elkawyj12mt9f" class="animable"></path></g></g><g id="elir3odcloqtk"><g style="opacity: 0.2; transform-origin: 380.278px 283.071px;" class="animable"><path d="M380.11,280.83c.43.12.5,1.09.77,2.15s.6,2,.28,2.28c-.16.13-.5.06-.87-.27a3.19,3.19,0,0,1-.93-1.65,3.33,3.33,0,0,1,.09-1.89C379.64,281,379.91,280.77,380.11,280.83Z" style="fill: rgb(255, 255, 255); transform-origin: 380.278px 283.071px;" id="elw5qzwkf4lab" class="animable"></path></g></g><g id="el3c1m5ygpwt"><g style="opacity: 0.2; transform-origin: 407.78px 307.826px;" class="animable"><path d="M407.64,306.17c.43,0,.84.68.92,1.59s-.21,1.68-.64,1.72-.84-.68-.92-1.59S407.21,306.21,407.64,306.17Z" style="fill: rgb(255, 255, 255); transform-origin: 407.78px 307.826px;" id="eltyhia7u1qbi" class="animable"></path></g></g><g id="ell6g35m60zyc"><g style="opacity: 0.2; transform-origin: 428.856px 325.861px;" class="animable"><path d="M430.27,322.45c.37.24-.23,1.75-.91,3.57s-1.25,3.34-1.69,3.28-.54-1.83.23-3.83S429.93,322.21,430.27,322.45Z" style="fill: rgb(255, 255, 255); transform-origin: 428.856px 325.861px;" id="elhb459p0s0pf" class="animable"></path></g></g><g id="elzwcna4irsuk"><g style="opacity: 0.2; transform-origin: 421.4px 340.614px;" class="animable"><path d="M421.7,338.41c.41.13.48,1.1.48,2.2s-.07,2.08-.48,2.21-1.08-.83-1.08-2.21S421.3,338.27,421.7,338.41Z" style="fill: rgb(255, 255, 255); transform-origin: 421.4px 340.614px;" id="elnsmil7mrtmi" class="animable"></path></g></g><g id="elft5h6bm0zfg"><g style="opacity: 0.2; transform-origin: 436.715px 350.81px;" class="animable"><path d="M437.68,348.88c.39.19.27,1.21-.27,2.28s-1.27,1.77-1.66,1.58-.27-1.21.27-2.28S437.29,348.69,437.68,348.88Z" style="fill: rgb(255, 255, 255); transform-origin: 436.715px 350.81px;" id="ellf2u5pmp12" class="animable"></path></g></g><g id="elaehf4brdv4"><g style="opacity: 0.2; transform-origin: 441.925px 343.911px;" class="animable"><path d="M442.06,343.36c.42.11.7.44.62.74s-.47.47-.89.36-.7-.43-.62-.74S441.64,343.26,442.06,343.36Z" style="fill: rgb(255, 255, 255); transform-origin: 441.925px 343.911px;" id="el9l3lyjunuht" class="animable"></path></g></g><g id="elerqexg44bh"><g style="opacity: 0.2; transform-origin: 304.138px 356.538px;" class="animable"><path d="M306.09,359c-.26.33-1.66-.35-2.78-1.83s-1.42-3-1-3.16,1.27.91,2.27,2.22S306.37,358.68,306.09,359Z" style="fill: rgb(255, 255, 255); transform-origin: 304.138px 356.538px;" id="el33cvf2yuruq" class="animable"></path></g></g><g id="elk1o9hb3kki9"><g style="opacity: 0.2; transform-origin: 297.59px 347.588px;" class="animable"><path d="M297.59,348.17a.48.48,0,0,1-.54-.24.65.65,0,0,1,.15-.74.66.66,0,0,1,.74-.14.48.48,0,0,1,.23.54c-.11.52,0,.53,0,.57S298.11,348.06,297.59,348.17Z" style="fill: rgb(255, 255, 255); transform-origin: 297.59px 347.588px;" id="elxqn5rpmhcr" class="animable"></path></g></g><g id="elx8jycimkeqm"><path d="M289.62,339c.09.3,12.09-5.3,12.09-5.3a11.18,11.18,0,0,1-.89-7L287.46,330l.52,2.84Z" style="opacity: 0.5; transform-origin: 294.585px 332.856px;" class="animable"></path></g></g><g id="freepik--plant-1--inject-49" class="animable" style="transform-origin: 144.94px 353.435px;"><path d="M240.15,336.39c1.61-1,3.31-1.83,5-2.68q5.47-2.73,11-5.41c2.11-1,4.21-2.06,6.35-3,3.05-1.33,6.15-2.58,9.22-3.86a58.08,58.08,0,0,0-9.17-.86,44.6,44.6,0,0,0-7.67.08A58.45,58.45,0,0,0,245.8,323c-3.14,1-6.15,2.42-9.27,3.48a56.19,56.19,0,0,0-13.06,5.9c-2.4,1.57-5.67,1.82-8,3.44a66.92,66.92,0,0,1-8.9,5.47c-5.23,2.55-9.86,6.33-14.75,9.58-.2.13-.43.21-1.1.53,3.24-10.16,6.34-19.85,9.44-29.55l-.59-.3a121.29,121.29,0,0,0-18.18,16.17l-.55-.3c1.69-4.85,3.41-9.68,5.05-14.54s3.17-9.64,4.76-14.46,3.24-9.77,4.87-14.66,3.22-9.54,4.83-14.31l-.71-.26c-2.3,2.35-5.43,4-6.41,7.5-.14.52-.72.91-1.08,1.38a11.94,11.94,0,0,0-1.7,2.36c-.93,2.2-1.75,4.36-4.48,5-.43.1-.67,1.07-1,1.64-1,1.87-1.78,4.06-3.27,5.47a6.77,6.77,0,0,0-1.86,2.45,42.6,42.6,0,0,1-2.66,4.61l-1.13-.42c.43-3.07.7-6.16,1.32-9.19,1.07-5.31,1.93-10.72,3.69-15.81,1.26-3.67,1.25-7.45,2.25-11.09a11.79,11.79,0,0,0,0-2.58,13.63,13.63,0,0,0-1.4,1.51c-1.91,3-3.65,6.19-5.7,9.12a60.72,60.72,0,0,0-6.84,12.11c-.43,1.09-1.44,1.95-1.93,3-2.08,4.63-4.07,9.31-6.1,14a40.26,40.26,0,0,0-1.89,4.33c-.95,3.12-1.71,6.31-2.54,9.46l-.35-.18-3.09-20.93-1-.12c-1.66,3.91-3.31,7.83-5.09,12-.5-2.38-1-4.64-1.43-6.89-.25-1.18-.46-2.38-.74-3.55-.46-1.9-1.59-3.9-1.29-5.66a10.3,10.3,0,0,0-.78-5.21c-.64-2-1.71-4.24-1.31-6.1s-.32-3.24-.76-4.87a33.19,33.19,0,0,1-1.42-9.07,6.36,6.36,0,0,0-.77-3.62,37,37,0,0,1-2.45-6.26c-.33-.93-.24-2-.65-2.9-1.33-2.84-2.82-5.61-4.24-8.41-.35-.71-.67-1.44-1-2.16l-.81-.07c-.55,1.8-1.24,3.58-1.62,5.42s.23,4.11-.72,5.3c-2.24,2.81-1.27,5.74-1.32,8.67,0,1.21,0,2.42-.12,3.62-.22,2.13-.52,4.25-.79,6.37s-.55,4.15-.81,6.22a4.15,4.15,0,0,0-.06,1.78c2.22,6.16-.31,12.23-.31,18.34a29.57,29.57,0,0,1-.76,4.8l-.55.24c-.91-1.5-1.47-3.63-2.81-4.37a12,12,0,0,1-5.79-7.19c-.67-2-2.53-3.56-3.83-5.34-2.48-3.37-5-6.74-7.42-10.13-.34-.48-.43-1.14-.75-1.63-1.3-2-1.9-4.49-4.84-5.25-1.3-.33-2.24-2.06-3.32-3.18-.29-.32-.37-.88-.71-1.1-2.06-1.34-4.15-2.64-6.27-3.88a21.08,21.08,0,0,0-3-1.14,15.69,15.69,0,0,0,.63,2.13c2.29,4.28,4.67,8.5,6.9,12.81,4.68,9,9.42,18,13.86,27.09,3.42,7,6.06,14.41,9.79,21.24,1.82,3.34.89,6.25,1.22,9.83-5.41-4.78-9.71-9.95-15.19-13.82-.58-.41-.87-1.21-1.33-1.8a11,11,0,0,0-1.42-1.62c-1.66-1.41-3.45-2.69-5-4.17-1-.91-1.56-2.2-2.49-3.15-2-2-4.15-3.93-6.16-5.95-.67-.68-1-1.73-1.65-2.38-3.13-3-6.43-5.76-9.5-8.79-1.88-1.87-3.2-4.27-5.83-5.42-1-.43-1.58-1.61-2.45-2.33-2.39-2-4.83-4-7.24-5.93l-.5.48c.4,1,.75,1.94,1.2,2.87,1,2.18,2.17,4.33,3.22,6.51,2.43,5,4.79,10.1,7.27,15.11,1.55,3.15,3.32,6.19,4.88,9.33.88,1.78,1.53,3.69,2.46,6a14.53,14.53,0,0,1-7.23-5.15,9.08,9.08,0,0,0-2-1.83c-1.87-1.37-3.81-2.63-5.65-4-.72-.54-1.15-1.48-1.87-2-2-1.46-4.49-2.49-6.08-4.31a9,9,0,0,0-3.31-2.32c-1.56-.73-3.34-1.51-4.35-2.79a36.67,36.67,0,0,0-10.54-8.64c-.48-.29-1.69-.34-1.78-.13a4.69,4.69,0,0,0-.35,2.32c0,.46.55.88.88,1.29,3.5,4.38,6.89,8.86,10.54,13.11Q57.4,325.74,70.2,340.2c7.22,8.15,15.84,14.74,24.42,21.36,1.46,1.12,2.9,2.27,4.35,3.41l-.24.83c-2-.24-3.94-.35-5.86-.76s-4-1.14-6.05-1.74c-1.92,2.08-10.31,2-14-.15C69.52,364.84,61,363,58.69,360.2c-1.09.57-2.24,1.72-3.21,1.58-3.87-.55-7.68-1.5-11.51-2.31a2.89,2.89,0,0,0-1.09-.21,17.87,17.87,0,0,1-11.82-1.32,2.19,2.19,0,0,0-.86-.09c-3-.05-6-.11-9-.13-.9,0-1.79.11-2.69.18l-.35.89c2.95,2.29,5.81,4.71,8.88,6.83,7.37,5.1,15.8,8,24.06,11.17,10.71,4.17,21.64,7.45,33.16,8.4,4.49.37,9,.62,13.88.95l44.28-2,40.81,0c2.79-.18,5.55.1,8.24-.23,14.77-1.82,29.35-4.44,43.33-9.88a127.28,127.28,0,0,0,20.74-10.24,35.84,35.84,0,0,0,3.62-2.92l-.43-.52c-3.19.46-6.37,1-9.58,1.34-1.34.13-2.76-.54-4.09-.39-2.92.34-5.8,1-8.7,1.47a7.32,7.32,0,0,1-1.53-.14,26.2,26.2,0,0,0-2.93-.12c-3.5.15-7,2.3-10.53.22-.3-.18-.86,0-1.3.13-3.09.65-6.17,1.36-9.28,1.93a8.43,8.43,0,0,1-2.18-.31,12.46,12.46,0,0,0-3.09-.18c-3,.5-6,1.39-9.12,0,7-4.6,13.89-9.17,20.83-13.6C224.81,345.85,232.48,341.13,240.15,336.39Z" style="fill: rgb(69, 90, 100); transform-origin: 144.94px 318.09px;" id="eli7u2jz2515" class="animable"></path><path d="M146.39,379.67a18.56,18.56,0,0,1,2.07.11,49.35,49.35,0,0,0,5.62.05,63.23,63.23,0,0,0,18.12-3.78,124,124,0,0,0,16.89-7.76l5-2.7,1.35-.72a3.36,3.36,0,0,1,.49-.23s-.14.13-.43.32l-1.31.81c-1.14.69-2.8,1.68-4.88,2.85a111.58,111.58,0,0,1-16.9,7.92,59.33,59.33,0,0,1-18.27,3.65,40.73,40.73,0,0,1-5.66-.2c-.67-.06-1.18-.16-1.53-.21A2.15,2.15,0,0,1,146.39,379.67Z" style="fill: rgb(38, 50, 56); transform-origin: 171.16px 372.427px;" id="el1uwenymv465" class="animable"></path><path d="M255.82,362.09a1.35,1.35,0,0,1-.25.18c-.17.1-.41.27-.75.46a29.62,29.62,0,0,1-15,3.9l.16-.08a10.19,10.19,0,0,1-12.45,2.95l.31-.08a8.88,8.88,0,0,1-12.32,2.13h.33a12.94,12.94,0,0,1-2.8,1.81,13.63,13.63,0,0,1-11.91,0l.31-.07a11.69,11.69,0,0,1-8,4,11.54,11.54,0,0,1-7.67-2H186a17.94,17.94,0,0,1-6.78,3.26,18.32,18.32,0,0,1-5.71.48,17.57,17.57,0,0,1-3.58-.64c-.4-.12-.7-.24-.9-.31l-.3-.13a1.14,1.14,0,0,1,.32.07l.91.25a19.29,19.29,0,0,0,3.56.53,18.66,18.66,0,0,0,5.62-.57,17.84,17.84,0,0,0,6.61-3.26l.12-.1.12.09a11.1,11.1,0,0,0,7.39,1.88,11.28,11.28,0,0,0,7.64-3.88l.13-.16.18.1a13.16,13.16,0,0,0,11.46,0,12.84,12.84,0,0,0,2.68-1.73l.16-.14.16.13a8.12,8.12,0,0,0,6.42,1.34,8,8,0,0,0,5.18-3.33l.12-.18.2.1a9.81,9.81,0,0,0,11.91-2.76l.06-.08h.1A31,31,0,0,0,251.72,364c1.35-.54,2.36-1,3.05-1.39l.77-.41Z" style="fill: rgb(38, 50, 56); transform-origin: 212.275px 370.585px;" id="eln5pdojc98u" class="animable"></path><path d="M271.71,321.45s-.21.09-.64.22-1.07.3-1.93.48a24.32,24.32,0,0,1-3.18.47,11,11,0,0,1-4.35-.38l.13,0a11.59,11.59,0,0,1-4.95,2.35,11.79,11.79,0,0,1-6.49-.47l.22-.06a10,10,0,0,1-10.83,3.41l.24-.07A15.25,15.25,0,0,1,228.77,333l.23-.17a11.18,11.18,0,0,1-10.6,7.73l.25-.16a12.63,12.63,0,0,1-8.44,7.38,12,12,0,0,1-3.31.41l.27-.22a11.08,11.08,0,0,1-12.87,8.48l.31-.21a5.72,5.72,0,0,1-7.07,4.47l.31-.19a9.3,9.3,0,0,1-4.29,6.14,9.15,9.15,0,0,1-6.8,1.31l.24-.15a8.42,8.42,0,0,1-4.85,5.3,8.24,8.24,0,0,1-6.23.21l.18,0a15.76,15.76,0,0,1-9.49,5.27,15,15,0,0,1-2.91.17l-.75-.06-.25,0H153l.75,0a16.08,16.08,0,0,0,2.89-.24,16.35,16.35,0,0,0,4.39-1.47,15.36,15.36,0,0,0,4.88-3.84l.07-.09.11.05a7.93,7.93,0,0,0,6-.26,8.05,8.05,0,0,0,4.59-5.06l.05-.19.2,0a9.17,9.17,0,0,0,10.53-7.13l.05-.27.26.08a5.22,5.22,0,0,0,6.42-4.08l0-.27.26.06a10.55,10.55,0,0,0,12.24-8.08l0-.22h.23a11.62,11.62,0,0,0,3.15-.39,12.13,12.13,0,0,0,8.1-7.07l.06-.16h.18a10.7,10.7,0,0,0,10.12-7.36l.05-.17h.18a14.76,14.76,0,0,0,10.82-5.43l.1-.12.15,0a9.6,9.6,0,0,0,10.39-3.22l.08-.11.13.05A11.53,11.53,0,0,0,261.57,322l.06-.05.07,0a11.11,11.11,0,0,0,4.25.43,28.57,28.57,0,0,0,3.17-.4c.85-.16,1.5-.31,1.93-.42l.49-.12Z" style="fill: rgb(38, 50, 56); transform-origin: 212.205px 350.111px;" id="elmd1je9vaoo" class="animable"></path><path d="M190.86,351.61a3.08,3.08,0,0,1-.48.95,10.39,10.39,0,0,1-1.9,2.2,12.23,12.23,0,0,1-3.71,2.21,11.77,11.77,0,0,1-5.24.7,11.27,11.27,0,0,1-1.25-.2l.29-.14a9.68,9.68,0,0,1-6.85,5.14,8.39,8.39,0,0,1-2.62.11,2.77,2.77,0,0,1-.92-.22,13.92,13.92,0,0,0,3.47-.23,9.9,9.9,0,0,0,3.43-1.53,9.18,9.18,0,0,0,3-3.49l.08-.17.21,0c.38,0,.78.16,1.19.18a11.51,11.51,0,0,0,5-.63,12.66,12.66,0,0,0,3.63-2A17,17,0,0,0,190.86,351.61Z" style="fill: rgb(38, 50, 56); transform-origin: 179.52px 357.123px;" id="elymftx0g9sm" class="animable"></path><path d="M181.38,335.77a1.6,1.6,0,0,1-.17.48l-.6,1.35c-.57,1.23-1.35,2.89-2.29,4.9-1.95,4.13-4.66,9.83-7.73,16.1a67.59,67.59,0,0,1-4.92,8.54,33.25,33.25,0,0,1-5.34,6,23.29,23.29,0,0,1-4.46,3.09,12.64,12.64,0,0,1-1.34.63,2.05,2.05,0,0,1-.49.17s.63-.33,1.73-1a26.61,26.61,0,0,0,4.32-3.19,35.39,35.39,0,0,0,5.19-6,72,72,0,0,0,4.85-8.49l7.86-16,2.44-4.83.68-1.3A2,2,0,0,1,181.38,335.77Z" style="fill: rgb(38, 50, 56); transform-origin: 167.71px 356.4px;" id="elwc9l5fv7h8b" class="animable"></path><path d="M200.16,279.9a2.89,2.89,0,0,1-.27.59l-.87,1.66-3.34,6.22v0a17.16,17.16,0,0,1-4.64,7.48l.06-.23a6.64,6.64,0,0,1,0,4.79,6.73,6.73,0,0,1-1.35,2.22,10,10,0,0,1-2.13,1.62c-.71.48-1.33,1.18-1.1,2s.93,1.61.85,2.72a3.73,3.73,0,0,1-1.45,2.64,9,9,0,0,1-2.72,1.38l.16-.32a7.6,7.6,0,0,1-3.6,8.8l.1-.36a7.33,7.33,0,0,1,.76,1.91,8.62,8.62,0,0,1-4.37,9.65l.12-.33a7.43,7.43,0,0,1-4.33,9.71l.16-.27a10,10,0,0,1-1.06,6.69,9.92,9.92,0,0,1-4.3,4.24l.1-.2a15.79,15.79,0,0,1-.47,6.8,16.13,16.13,0,0,1-2.22,4.65,15.16,15.16,0,0,1-2.13,2.46c-.28.25-.51.42-.65.54s-.23.18-.24.17a1.81,1.81,0,0,1,.2-.21l.61-.58a16.72,16.72,0,0,0,2-2.5,16.55,16.55,0,0,0,2.1-4.61,15.59,15.59,0,0,0,.38-6.66l0-.14.13-.06a9.87,9.87,0,0,0,5.07-10.5l0-.2.21-.07a6.6,6.6,0,0,0,3.83-3.55,6.67,6.67,0,0,0,.17-5.5l-.1-.23.23-.11a8.15,8.15,0,0,0,4.09-9.06,7,7,0,0,0-.71-1.78l-.12-.24.23-.13a7.11,7.11,0,0,0,3.36-8.17l-.08-.24.23-.08a8.59,8.59,0,0,0,2.57-1.28,3.27,3.27,0,0,0,1.28-2.28c.09-.88-.58-1.6-.83-2.6a1.91,1.91,0,0,1,.27-1.49,3.79,3.79,0,0,1,1-1,10,10,0,0,0,2.06-1.54,6.39,6.39,0,0,0,1.28-2.07,6.26,6.26,0,0,0,0-4.49l-.05-.13.1-.1a17.13,17.13,0,0,0,4.62-7.26h0l3.46-6.16.94-1.62A4.36,4.36,0,0,1,200.16,279.9Z" style="fill: rgb(38, 50, 56); transform-origin: 180.695px 323.516px;" id="el68scfefwcx2" class="animable"></path><path d="M113.44,309.42a5.18,5.18,0,0,0,5.33,3,4.6,4.6,0,0,0,4.85,6.29A6.67,6.67,0,0,0,127,327a6,6,0,0,0,5,7,9.28,9.28,0,0,0,4.24,12.8,7.89,7.89,0,0,0,4.19,10.17,9.92,9.92,0,0,0,5.74,11l3.5,6.77a8.1,8.1,0,0,1,.85,2.15,5,5,0,0,1-2.45,4.83,9.52,9.52,0,0,1-5.54,1.16A21.87,21.87,0,0,1,130.27,378a34,34,0,0,1-8.46-10.38,47.23,47.23,0,0,1-5.13-14.72c-2.22-13.12,1.12-27.22-3.94-39.53Z" style="fill: rgb(69, 90, 100); transform-origin: 131.643px 346.172px;" id="elokzri0yyc3l" class="animable"></path><path d="M113.44,309.42l-.63,4v0l.81,2.16c.26.82.53,1.73.8,2.74a50.84,50.84,0,0,1,1.18,7.16c.25,2.74.34,5.8.37,9.14s0,7,.16,10.81a55.54,55.54,0,0,0,1.79,12.07,46.87,46.87,0,0,0,5.4,12.28,29.66,29.66,0,0,0,10.11,10.12,21.12,21.12,0,0,0,7,2.56c2.46.38,5.2.48,7.41-.81a5.18,5.18,0,0,0,2.35-2.92,3.63,3.63,0,0,0,.08-1.85,7.43,7.43,0,0,0-.71-1.78L146,368.09l.13.12a10.17,10.17,0,0,1-5.89-11.32l.15.28a8.14,8.14,0,0,1-4.31-10.49l.12.31a9.14,9.14,0,0,1-5.07-5.92,9,9,0,0,1,.74-7.21l.16.31a6.23,6.23,0,0,1-5.2-7.2l.11.21a6.71,6.71,0,0,1-3.49-3.88,6.58,6.58,0,0,1,0-4.63l.16.2a4.72,4.72,0,0,1-5-6.47l.1.13a5.17,5.17,0,0,1-2.81-.46,5.63,5.63,0,0,1-1.66-1.23,5,5,0,0,1-.71-1l-.16-.39a5.85,5.85,0,0,0,.94,1.35,5.42,5.42,0,0,0,1.65,1.16,4.92,4.92,0,0,0,2.72.41l.17,0-.07.15a4.69,4.69,0,0,0,.33,4,4.56,4.56,0,0,0,4.42,2.13l.24,0-.09.23a6.23,6.23,0,0,0,0,4.4,6.32,6.32,0,0,0,3.32,3.66l.14.06,0,.15a5.53,5.53,0,0,0,.94,4.23,5.61,5.61,0,0,0,3.94,2.48l.32,0-.17.27a8.61,8.61,0,0,0-.67,6.88,8.76,8.76,0,0,0,4.83,5.61l.22.09-.1.22a7.67,7.67,0,0,0,4.07,9.84l.19.08,0,.21a9.68,9.68,0,0,0,5.6,10.73l.09,0,0,.08,3.59,6.95a7.92,7.92,0,0,1,.75,1.9,4.27,4.27,0,0,1-.09,2.1,5.75,5.75,0,0,1-2.58,3.23,8.8,8.8,0,0,1-3.85,1.1,17.12,17.12,0,0,1-3.92-.23,21.62,21.62,0,0,1-7.19-2.62A30,30,0,0,1,122.91,370a46.69,46.69,0,0,1-5.43-12.42,54.67,54.67,0,0,1-1.76-12.17c-.16-3.87-.1-7.49-.11-10.83s-.08-6.38-.3-9.11a53.24,53.24,0,0,0-1.1-7.14c-.26-1-.52-1.92-.77-2.73s-.54-1.53-.77-2.16v0C113.16,310.86,113.35,309.87,113.44,309.42Z" style="fill: rgb(38, 50, 56); transform-origin: 131.75px 346.299px;" id="elc4xr90sp60k" class="animable"></path><path d="M139,382s-.14.09-.42.2a9.56,9.56,0,0,1-1.26.42,15.19,15.19,0,0,1-4.85.43,27.63,27.63,0,0,1-7.06-1.48,74.31,74.31,0,0,1-8.14-3.42,86.11,86.11,0,0,1-13.69-8.3c-1.65-1.22-2.92-2.29-3.8-3a11.69,11.69,0,0,1-1.3-1.22,11.51,11.51,0,0,1,1.43,1.06c.92.69,2.22,1.7,3.89,2.88a95.72,95.72,0,0,0,13.7,8.13,79.52,79.52,0,0,0,8.06,3.43,28.23,28.23,0,0,0,6.94,1.57A17.94,17.94,0,0,0,139,382Z" style="fill: rgb(38, 50, 56); transform-origin: 118.74px 374.36px;" id="el2n623cuigs2" class="animable"></path><path d="M117.69,354.18a3.46,3.46,0,0,1-.83-.12,9.27,9.27,0,0,1-2.25-.83,10.66,10.66,0,0,1-3-2.28,10.5,10.5,0,0,1-2.39-4.3l.33.11a5.29,5.29,0,0,1-8.35-3.61l.32.22a7,7,0,0,1-6-1.25,6.94,6.94,0,0,1-2.56-6.06l.31.27a7.33,7.33,0,0,1-5.83-1.1A7.16,7.16,0,0,1,84.34,331l.22.15a8.09,8.09,0,0,1-4.44-.75,8.24,8.24,0,0,1-2.73-2,7.47,7.47,0,0,1-1.2-1.81,2.93,2.93,0,0,1-.25-.72,10.47,10.47,0,0,0,1.61,2.37,8.52,8.52,0,0,0,2.71,1.91,7.88,7.88,0,0,0,4.25.64l.18,0,0,.18a7.14,7.14,0,0,0,8.37,4.92l.36-.09,0,.36a6.47,6.47,0,0,0,2.38,5.6,6.54,6.54,0,0,0,5.6,1.17l.28-.08,0,.29a4.91,4.91,0,0,0,3.11,3.92,5,5,0,0,0,4.48-.59l.25-.18.08.3a10.09,10.09,0,0,0,2.24,4.18,10.63,10.63,0,0,0,2.84,2.3A14.93,14.93,0,0,0,117.69,354.18Z" style="fill: rgb(38, 50, 56); transform-origin: 96.815px 340.025px;" id="elarts3rbncp7" class="animable"></path><g id="el1ogvutn1bgm"><g style="opacity: 0.3; transform-origin: 76.37px 373.025px;" class="animable"><path d="M101.36,376a13.85,13.85,0,0,1-17.1-.59c-3.76,2.55-8.82,2.56-13.08,1-1.51-.56-3-1.29-4.51-1.74-3-.86-6.19-.6-9.26-1.11s-6.32-2.13-7.23-5.1c-3.75,1.49-8,.09-11.74-1.31L19,359.91c2.46,1.94,4.89,3.93,7.46,5.71,7.37,5.1,15.81,8,24.06,11.17,10.71,4.17,21.65,7.45,33.17,8.4,4.49.37,9.59.62,14.47.95l35.58-2-18.48-7.76A16.67,16.67,0,0,1,101.36,376Z" id="elrh0tdw0qkje" class="animable" style="transform-origin: 76.37px 373.025px;"></path></g></g><path d="M115.21,376.35a12.56,12.56,0,0,1-3.64,1.17,16.71,16.71,0,0,1-10.29-1.4l.19,0a13.57,13.57,0,0,1-8,2.73,13.86,13.86,0,0,1-9.34-3.28l.3,0a13.48,13.48,0,0,1-8.76,2.06,18,18,0,0,1-4.69-1.07c-1.53-.57-3-1.3-4.55-1.72C63.28,374,60,374.31,57,373.7A11.53,11.53,0,0,1,52.68,372a6.64,6.64,0,0,1-2.74-3.49l.33.15a11.75,11.75,0,0,1-7,.23,48.06,48.06,0,0,1-6-2l-9.77-3.67-6.36-2.43-1.69-.67a4,4,0,0,1-.57-.25,2.9,2.9,0,0,1,.6.18l1.71.59,6.41,2.3,9.81,3.57a48.52,48.52,0,0,0,6,1.93,11.44,11.44,0,0,0,6.72-.24l.24-.1.08.25A6.16,6.16,0,0,0,53,371.58a11.33,11.33,0,0,0,4.1,1.62c3,.59,6.23.28,9.46,1.14a46.18,46.18,0,0,1,4.6,1.74,17.85,17.85,0,0,0,4.55,1,13.06,13.06,0,0,0,8.45-1.95l.16-.11.14.13a13.72,13.72,0,0,0,16.83.63l.09-.07.1.05a16.7,16.7,0,0,0,10.09,1.52,18.1,18.1,0,0,0,2.74-.66A6.23,6.23,0,0,1,115.21,376.35Z" style="fill: rgb(38, 50, 56); transform-origin: 67.045px 369.363px;" id="elhdr9tsm8q0o" class="animable"></path><g id="elg51kooznp96"><g style="opacity: 0.3; transform-origin: 128.928px 325.74px;" class="animable"><path d="M131.86,333.79s-2.44-4.77-1.31-7.28a8.42,8.42,0,0,1-2.67-9.66,5.38,5.38,0,0,1-5.45-6.21l1.27-4.16s3.64,8.15,7.78,8.28c0,0-5.09,8.12,1.64,10.92,0,0-3.12,6.85,2.37,8.25L133.73,345A9.27,9.27,0,0,1,131.86,333.79Z" id="el5qskavfl92y" class="animable" style="transform-origin: 128.928px 325.74px;"></path></g></g><path d="M132.66,334.1s-.2-.08-.51-.33a5.57,5.57,0,0,1-1.12-1.3,6.55,6.55,0,0,1-.91-2.49,6.24,6.24,0,0,1,.43-3.39l.07.29a8.58,8.58,0,0,1-3.18-5.11,8.4,8.4,0,0,1,.42-4.83l.23.33a5.69,5.69,0,0,1-3.65-1.28,5.43,5.43,0,0,1-1.7-2.52,5.1,5.1,0,0,1-.24-2,1.78,1.78,0,0,1,.14-.69,7.77,7.77,0,0,0,.38,2.56,5.27,5.27,0,0,0,5.06,3.41h.37l-.13.35a8.05,8.05,0,0,0-.37,4.55,8.26,8.26,0,0,0,3,4.83l.15.11-.07.17a6,6,0,0,0-.47,3.15,6.53,6.53,0,0,0,.77,2.39A9.3,9.3,0,0,0,132.66,334.1Z" style="fill: rgb(38, 50, 56); transform-origin: 127.572px 322.44px;" id="eldz7qlwn5z7s" class="animable"></path><path d="M156.33,325.85c-.05,0,0-.59,0-1.69s-.17-2.7-.39-4.73c-.47-4.05-1.38-9.78-2.67-16.52l.2.19-1-.13.25-.14L149.62,310c-.53,1.25-1.07,2.52-1.63,3.81s-1,2.63-1.57,4a144.21,144.21,0,0,0-5.14,14.84,60.94,60.94,0,0,0-2.15,12.61,43.89,43.89,0,0,0,.4,8.61c.14,1,.33,1.78.42,2.31a4.06,4.06,0,0,1,.12.82,5.08,5.08,0,0,1-.22-.8c-.12-.52-.34-1.29-.52-2.3a40.6,40.6,0,0,1-.57-8.66,59.16,59.16,0,0,1,2.06-12.71,137,137,0,0,1,5.11-14.91c.54-1.34,1.07-2.67,1.59-4s1.09-2.56,1.63-3.81c1.07-2.49,2.11-4.88,3.09-7.16l.07-.16.18,0,1,.13.17,0,0,.17c1.25,6.76,2.1,12.51,2.49,16.58a46.64,46.64,0,0,1,.26,4.76,9.43,9.43,0,0,1-.07,1.26A2,2,0,0,1,156.33,325.85Z" style="fill: rgb(38, 50, 56); transform-origin: 147.568px 329.745px;" id="elcmo5mbf1sa" class="animable"></path><g id="elp299yn8d10b"><g style="opacity: 0.3; transform-origin: 144.109px 362.595px;" class="animable"><path d="M150.07,343.48c-1,2.82-4.72,3.72-6.26,6.29-1.86,3.11.09,7.44-1.68,10.6a19.4,19.4,0,0,1-2.75,3.13,11,11,0,0,0-1.93,10.75,12.38,12.38,0,0,0,8.13,7.46L142.92,379c2.83-7.28,5.66-14.58,7.48-22.18C151.46,352.38,152.12,347.52,150.07,343.48Z" id="el9ypyad0l57" class="animable" style="transform-origin: 144.109px 362.595px;"></path></g></g><path d="M166.66,307.75a22.71,22.71,0,0,0-3.26,5c-1,1.95-2.08,3.9-3.08,5.87-1.61,3.17-3.11,6.39-4.61,9.61l-4.47,9.56a17.35,17.35,0,0,0-1.93,5.9c-.1,1.36.09,2.83-.56,4-.9,1.61-3,2-4.11,3.48-1.3,1.77-.63,4.31-.83,6.54-.38,4.14-3.87,7.26-4.78,11.3-1,4.35,3.27,11.32,7.31,12.7,11.68-4,13.55-14.52,15-21.42l12.42-60.48C173.06,303.44,169.15,305.12,166.66,307.75Z" style="fill: rgb(69, 90, 100); transform-origin: 156.321px 340.76px;" id="elhgkgi3vezd8" class="animable"></path><path d="M166.66,307.75a6.77,6.77,0,0,1,.48-.52c.33-.33.84-.8,1.55-1.38s1.62-1.27,2.59-2.19a7.3,7.3,0,0,0,2.34-3.88l.23.05c-1.5,7.4-3.77,18.63-6.54,32.36-1.4,6.87-2.93,14.37-4.56,22.32-.4,2-.82,4-1.23,6.05s-.85,4.12-1.46,6.18A23.34,23.34,0,0,1,153.41,378a21.18,21.18,0,0,1-7,4l-.09,0-.08,0a9.68,9.68,0,0,1-3.65-2.6,16.76,16.76,0,0,1-2.5-3.61,13.37,13.37,0,0,1-1.37-4.11,8,8,0,0,1,.53-4.23c1-2.63,2.77-4.79,3.7-7.24a9.35,9.35,0,0,0,.65-3.76,15.81,15.81,0,0,1,.17-3.88,4.24,4.24,0,0,1,.89-1.77,6.71,6.71,0,0,1,1.51-1.18,5.47,5.47,0,0,0,2.53-2.32,11.3,11.3,0,0,0,.38-3.42,11.75,11.75,0,0,1,.77-3.37c.82-2.11,1.82-4,2.68-5.91s1.72-3.67,2.53-5.38l4.44-9.19c1.31-2.7,2.59-4.94,3.56-6.8a31.16,31.16,0,0,1,2.49-4.16,8.69,8.69,0,0,1,1.1-1.26,3.29,3.29,0,0,1-.26.33c-.18.22-.45.54-.76,1a34.81,34.81,0,0,0-2.4,4.19c-.94,1.87-2.2,4.12-3.48,6.83l-4.37,9.22-2.5,5.4c-.85,1.88-1.85,3.82-2.64,5.88a11.27,11.27,0,0,0-.73,3.26,11.39,11.39,0,0,1-.4,3.56,5.85,5.85,0,0,1-2.7,2.53,6.12,6.12,0,0,0-1.4,1.11,3.71,3.71,0,0,0-.79,1.57,15.62,15.62,0,0,0-.14,3.77,10,10,0,0,1-.68,3.94c-1,2.53-2.69,4.7-3.68,7.24a7.42,7.42,0,0,0-.5,4,12.83,12.83,0,0,0,1.33,3.94A15.51,15.51,0,0,0,143,379a9.2,9.2,0,0,0,3.44,2.46h-.17a20.68,20.68,0,0,0,6.82-3.89,22.76,22.76,0,0,0,6.49-11c.61-2,1-4.09,1.46-6.13s.83-4.06,1.24-6c1.65-8,3.19-15.44,4.61-22.31,2.86-13.71,5.2-24.93,6.75-32.32l.23,0a7.37,7.37,0,0,1-2.44,4c-1,.92-1.92,1.59-2.64,2.16s-1.24,1-1.59,1.32S166.66,307.75,166.66,307.75Z" style="fill: rgb(38, 50, 56); transform-origin: 156.253px 340.89px;" id="elb4a6ea4w5q" class="animable"></path><g id="eljki24thj3yk"><g style="opacity: 0.3; transform-origin: 176.915px 328.305px;" class="animable"><path d="M153.83,376.88a27.44,27.44,0,0,0,10.9-9.3,82.23,82.23,0,0,0,7.07-12.64l9.37-19.35L200,279.73l-4.61,8.39a17,17,0,0,1-4.63,7.37,6.51,6.51,0,0,1-2.23,7.61c-1,.68-2.32,1.3-2.4,2.5-.06.87.61,1.62.82,2.47a3.18,3.18,0,0,1-1.06,2.95,8.18,8.18,0,0,1-2.88,1.54,7.36,7.36,0,0,1-3.48,8.48A8.32,8.32,0,0,1,176,332.25a7.17,7.17,0,0,1-4.17,9.38,10,10,0,0,1-5.21,10.71,15.92,15.92,0,0,1-5.52,14.6" id="eleeuqy7ykt6" class="animable" style="transform-origin: 176.915px 328.305px;"></path></g></g><g id="elfj4c6nhhjt4"><g style="opacity: 0.3; transform-origin: 96.59px 339.855px;" class="animable"><path d="M117.48,354a10.56,10.56,0,0,1-8.26-7.58,5.07,5.07,0,0,1-8-3.47,6.6,6.6,0,0,1-8.29-7,7.34,7.34,0,0,1-8.64-5.13,8.27,8.27,0,0,1-8.59-5.11s2.3,2.13,7.19,2.63l3.88,2.35s-.34,4,7.08,4c0,0-.34,8.09,8.09,7.08,0,0,.48,5.07,7.08,3.37,0,0,1.13,4.49,7.22,6.29Z" id="elmp0mznjx9h" class="animable" style="transform-origin: 96.59px 339.855px;"></path></g></g><g id="el694b8p5o7uv"><g style="opacity: 0.3; transform-origin: 210.81px 350.782px;" class="animable"><path d="M261.44,321.94a11.61,11.61,0,0,1-11.29,1.8,9.76,9.76,0,0,1-10.61,3.31,14.94,14.94,0,0,1-11,5.54,10.9,10.9,0,0,1-10.35,7.55,12.35,12.35,0,0,1-11.5,7.62A10.81,10.81,0,0,1,194.14,356a5.46,5.46,0,0,1-6.74,4.28,9.35,9.35,0,0,1-10.81,7.29A8.47,8.47,0,0,1,165.77,373a15.69,15.69,0,0,1-13.29,5.43l-2.17,1.43c9,.55,13.66-1.15,21.76-3.75,8.37-2.7,16-7.25,23.61-11.66l.35-.15c-.16-.06.5.05.34,0,7-4.6,13.33-8.82,20.28-13.25,7.6-4.84,15.36-9.63,23-14.37,1.61-1,3.46-2,5.15-2.81,3.65-1.82,7-3.61,10.65-5.4,2.1-1,4.28-1.93,6.42-2.87,1.93-.84,7.49-3.24,9.44-4C269.29,321.79,264.09,323.08,261.44,321.94Z" id="elxxng7wn5d9l" class="animable" style="transform-origin: 210.81px 350.782px;"></path></g></g><g id="elsdhwd8mpre"><g style="opacity: 0.3; transform-origin: 212.09px 372.147px;" class="animable"><path d="M258.32,360.7l-.42-.52h0l-2.28,1.74a30.56,30.56,0,0,1-16,4.34,10,10,0,0,1-12.19,2.85,8.61,8.61,0,0,1-12,2.06A13.36,13.36,0,0,1,201,372.91a11.71,11.71,0,0,1-15.34,2,18.36,18.36,0,0,1-17.23,2.64l-2.57.61a7,7,0,0,0,4,3.56,5.27,5.27,0,0,0,4.5-1.11,1.13,1.13,0,0,0-.14,1.58,2.53,2.53,0,0,0,1.56.81,7.41,7.41,0,0,0,5.44-1.05,1.55,1.55,0,0,0,.77,1.42c.5.27,1.63.86,2.09.53l1.63.19a36.25,36.25,0,0,0,4.79-.14c14.77-1.82,29.46-4.66,43.44-10.11a127,127,0,0,0,20.75-10.24A35.36,35.36,0,0,0,258.32,360.7Z" id="ela5x3k9kiki8" class="animable" style="transform-origin: 212.09px 372.147px;"></path></g></g><path d="M183.62,383.3s-.21.31-.85.37a1.56,1.56,0,0,1-1.08-.34,1.72,1.72,0,0,1-.64-1.38l.29.17a7.32,7.32,0,0,1-3.33,1.23,7.53,7.53,0,0,1-2.11-.06,2.6,2.6,0,0,1-2-1.2,1.33,1.33,0,0,1,.37-1.68l.3.41a5.5,5.5,0,0,1-3.67,1.26,5.18,5.18,0,0,1-2.95-1,5,5,0,0,1-1.39-1.53,1.66,1.66,0,0,1-.28-.69,7.74,7.74,0,0,0,1.87,1.94,5,5,0,0,0,2.76.85,5.18,5.18,0,0,0,3.33-1.19l.31.41a.83.83,0,0,0-.18,1,2.2,2.2,0,0,0,1.64.92,7.3,7.3,0,0,0,2,.08,7.42,7.42,0,0,0,3.18-1.06l.32-.2,0,.37a1.36,1.36,0,0,0,.45,1.12,1.38,1.38,0,0,0,.89.36A2.8,2.8,0,0,0,183.62,383.3Z" style="fill: rgb(38, 50, 56); transform-origin: 174.95px 381.267px;" id="el9j7d0uif0s" class="animable"></path><polygon points="187.11 456.83 91.47 456.83 80.51 382.27 198.08 382.27 187.11 456.83" style="fill: rgb(0, 255, 136); transform-origin: 139.295px 419.55px;" id="eluaki37clkfb" class="animable"></polygon><polygon points="71.74 399.27 71.69 382.27 206.75 382.27 205.67 399.27 71.74 399.27" style="fill: rgb(0, 255, 136); transform-origin: 139.22px 390.77px;" id="el2o8os8xnn9d" class="animable"></polygon><path d="M205.67,399.27c0,.26-30,.46-67,.46s-67.06-.2-67.06-.46,30-.45,67.06-.45S205.67,399,205.67,399.27Z" style="fill: rgb(38, 50, 56); transform-origin: 138.64px 399.275px;" id="elvnkzl8salad" class="animable"></path><g id="el33wt5u7a9up"><path d="M87.27,399.14c12,5.61,33,7.86,52.25,7.13s35.44-3.63,51.81-7.46Z" style="opacity: 0.3; transform-origin: 139.3px 402.607px;" class="animable"></path></g></g><g id="freepik--speech-bubble--inject-49" class="animable" style="transform-origin: 232.542px 204.342px;"><path d="M266.87,244.71l-12.33-4.6A42,42,0,1,1,265.74,230h0Z" style="fill: rgb(255, 255, 255); transform-origin: 232.455px 204.385px;" id="elautn81batf" class="animable"></path><path d="M266.87,244.71s0-.34-.09-1-.14-1.59-.25-2.82c-.2-2.48-.51-6.13-.9-10.87l.21.09,0,0a.14.14,0,0,1-.19,0,.15.15,0,0,1,0-.16,41.8,41.8,0,0,0,8.68-25.44,47.07,47.07,0,0,0-.6-6.89,41.68,41.68,0,0,0-79.94-8.37,42.49,42.49,0,0,0-2.68,19,41.15,41.15,0,0,0,5.55,17.19,41.87,41.87,0,0,0,24.83,19.12l1.73.45a10.65,10.65,0,0,0,1.73.36l3.39.53a57.49,57.49,0,0,0,6.51.16A41.89,41.89,0,0,0,254.48,240a.12.12,0,0,1,.1,0l9.11,3.48,2.36.91.82.33-.78-.27-2.35-.85-9.24-3.36.11,0a41.77,41.77,0,0,1-19.76,6.24,56.14,56.14,0,0,1-6.57-.14l-3.43-.51a11.43,11.43,0,0,1-1.74-.36l-1.76-.45a42.28,42.28,0,0,1-25.17-19.28,41.47,41.47,0,0,1-5.65-17.41,43,43,0,0,1,2.7-19.25A42,42,0,0,1,205,172.42a19.09,19.09,0,0,1,2-1.6l2-1.52,2.17-1.32a18.91,18.91,0,0,1,2.2-1.22l2.27-1.09c.74-.38,1.55-.6,2.32-.91s1.55-.59,2.35-.82l2.39-.61a41.59,41.59,0,0,1,19.05-.17,42.1,42.1,0,0,1,32.4,34.4,46.67,46.67,0,0,1,.58,7,40.39,40.39,0,0,1-.54,6.52,42,42,0,0,1-8.35,19.08l-.18-.18,0,0a.13.13,0,0,1,.18,0,.09.09,0,0,1,0,.07c.33,4.79.58,8.47.75,11q.12,1.81.18,2.79C266.86,244.41,266.87,244.71,266.87,244.71Z" style="fill: rgb(38, 50, 56); transform-origin: 232.546px 204.328px;" id="el7a6aws9uwgr" class="animable"></path><path d="M233.14,246.76c-1,0-2.12-.06-3.23-.12l-1.64-.08-3.46-.51a12,12,0,0,1-1.77-.37l-1.75-.45a42.06,42.06,0,0,1-13.91-6.74A43.08,43.08,0,0,1,196,225.83a41.91,41.91,0,0,1-5.68-17.51A43.16,43.16,0,0,1,193,189a42.22,42.22,0,0,1,11.8-16.73,16.72,16.72,0,0,1,1.75-1.42l2.3-1.71,2.19-1.33a17.08,17.08,0,0,1,2.23-1.24l2.26-1.08a11.55,11.55,0,0,1,1.52-.62c.28-.1.55-.19.82-.3l.83-.3c.5-.19,1-.38,1.54-.53l2.4-.62a42,42,0,0,1,19.17-.17,42.66,42.66,0,0,1,27.48,20.22,41.84,41.84,0,0,1,5.11,14.39,39.38,39.38,0,0,1,.54,5.94l0,1a42,42,0,0,1-.54,6.57,42.55,42.55,0,0,1-8.29,19.06l.92,13.63c0,.59.05.89.05.93v0h0a.21.21,0,0,1,0,.11l-.05.06h0a.24.24,0,0,1-.1,0h-.14l-.78-.28-2.36-.84-9.07-3.31a42.06,42.06,0,0,1-19.72,6.18C234.29,246.74,233.72,246.76,233.14,246.76Zm-.45-83.82a41.65,41.65,0,0,0-27.17,10.12A41.07,41.07,0,0,0,194,189.35a42.33,42.33,0,0,0-2.67,18.88,40.88,40.88,0,0,0,5.52,17.08A41.76,41.76,0,0,0,208,237.68a41.15,41.15,0,0,0,13.57,6.64l1.73.45a11.28,11.28,0,0,0,1.68.36l3.41.52,1.63.09a39.12,39.12,0,0,0,4.82.07,41.65,41.65,0,0,0,19.54-6,.36.36,0,0,1,.32,0l11.47,4.39.44.17c0-.15,0-.34-.05-.56l-1.14-13.57a.38.38,0,0,1,.05-.38,41.88,41.88,0,0,0,8.11-18.88,41.4,41.4,0,0,0,.51-6.41c0-.34,0-.71-.05-1.07a38.4,38.4,0,0,0-.55-5.77,41,41,0,0,0-5-14.05A41.65,41.65,0,0,0,241.58,164,39.18,39.18,0,0,0,232.69,162.94Zm0-.56a41.94,41.94,0,0,0-9.89,1.19l-2.39.61c-.5.14-1,.33-1.49.52l-.84.3c-.26.11-.54.2-.82.3a11.56,11.56,0,0,0-1.47.59l-2.27,1.1a16.85,16.85,0,0,0-2.18,1.2l-2.17,1.32-2.28,1.7a16.11,16.11,0,0,0-1.7,1.39,41.72,41.72,0,0,0-11.69,16.53,42.82,42.82,0,0,0-2.68,19.15,41.43,41.43,0,0,0,5.61,17.3,42.52,42.52,0,0,0,10.06,11.56,42.44,42.44,0,0,1-10-11.58,41.55,41.55,0,0,1-5.59-17.29,42.74,42.74,0,0,1,2.7-19.1,41.94,41.94,0,0,1,48.15-25.7,42.16,42.16,0,0,1,27,19.55A42.17,42.17,0,0,0,241.7,163.4,40.31,40.31,0,0,0,232.65,162.38Z" style="fill: rgb(38, 50, 56); transform-origin: 232.542px 204.342px;" id="eljftg29ijs9i" class="animable"></path><path d="M251.85,198.22a12.08,12.08,0,0,0-3.15-6.52,11.52,11.52,0,0,0-6.06-3.66,9.35,9.35,0,0,0-10.26,4.89,9.31,9.31,0,0,0-2.8-3,9.47,9.47,0,0,0-7.32-1.37,11.64,11.64,0,0,0-6,3.76,12.1,12.1,0,0,0-3,6.57,14.72,14.72,0,0,0,1.9,9,20.7,20.7,0,0,0,7.21,6.64c4.69,2.78,10.87,6.25,10.87,6.25s5.17-3.93,9.81-6.78a20.81,20.81,0,0,0,7.1-6.76A14.7,14.7,0,0,0,251.85,198.22Z" style="fill: rgb(0, 255, 136); transform-origin: 232.574px 204.309px;" id="eltwv1fng7qne" class="animable"></path></g><defs>     <filter id="active" height="200%">         <feMorphology in="SourceAlpha" result="DILATED" operator="dilate" radius="2"></feMorphology>                <feFlood flood-color="#32DFEC" flood-opacity="1" result="PINK"></feFlood>        <feComposite in="PINK" in2="DILATED" operator="in" result="OUTLINE"></feComposite>        <feMerge>            <feMergeNode in="OUTLINE"></feMergeNode>            <feMergeNode in="SourceGraphic"></feMergeNode>        </feMerge>    </filter>    <filter id="hover" height="200%">        <feMorphology in="SourceAlpha" result="DILATED" operator="dilate" radius="2"></feMorphology>                <feFlood flood-color="#ff0000" flood-opacity="0.5" result="PINK"></feFlood>        <feComposite in="PINK" in2="DILATED" operator="in" result="OUTLINE"></feComposite>        <feMerge>            <feMergeNode in="OUTLINE"></feMergeNode>            <feMergeNode in="SourceGraphic"></feMergeNode>        </feMerge>            <feColorMatrix type="matrix" values="0   0   0   0   0                0   1   0   0   0                0   0   0   0   0                0   0   0   1   0 "></feColorMatrix>    </filter></defs></svg>